<svg width="639" height="414" viewBox="0 0 639 414" fill="none" xmlns="http://www.w3.org/2000/svg">
<path d="M0.691866 201.716L1.44583 196.264L3.13692 188.98L6.69691 183.015L11.0055 176.58L15.1256 171.509L19.8059 167.331L29.915 158.507L70.3515 123.211L114.714 89.1888L160.187 66.9208L265.345 23.4383L289.667 15.6677L315.11 9.68492L326.522 6.26869L339.244 3.2773L352.525 1.17986L362.812 0.958751L368.236 1.29516L374.219 2.52551L384.689 5.92439L391.793 8.94263L399.457 12.8548L412.168 19.8294L425.81 29.955L474.019 71.9528L515.307 114.552L554.533 162.179L567.793 180.014L575.823 191.166L585.534 205L594.496 219.303L606.819 238.97L612.604 251.529L615.776 258.256L621.561 270.815L625.476 282.056L630.324 296.447L632.37 306.369L635.909 320.336L637.024 327.107L637.39 334.347L638.123 348.827L637.735 361.519L636.793 368.334L636.227 372.423L634.913 376.981L633.787 380.176L632.471 383.067L630.597 386.731L629.102 389.337L625.73 393.939L623.854 395.936L620.671 399.175L617.676 401.051L612.436 404.335L605.887 407.194L593.725 411.079L588.113 412.105L580.444 413.176L567.351 413.911L551.08 412.901L534.438 409.635L500.594 402.209L434.218 382.798L420.382 379.019L405.797 375.708L375.879 369.556L314.545 358.191L268.544 349.667L245.918 345.17L223.664 342.931L181.768 344.284L158.383 350.223L132.948 352.89L118.546 353.2L109.008 352.952L104.893 353.04L96.1032 352.323L88.8108 350.668L81.5184 349.013L77.5921 347.738L73.1057 345.57L69.928 343.826L66.7503 342.082L64.8814 340.764L60.5835 337.232L56.2856 333.701L49.7471 326.593L39.8479 314.122L31.2574 302.076L17.4425 278.365L12.2181 266.699L7.93088 253.202L5.69568 244.643L2.53405 227.95L0.864333 215.302L0.498034 208.062L0.691866 201.716Z" fill="#F9FBEA"/>
</svg>
