<svg width="601" height="617" viewBox="0 0 601 617" fill="none" xmlns="http://www.w3.org/2000/svg">
<path d="M399.898 6.71094L407.718 3.3286L415.971 1.50856L424.375 0.828267L436.261 0.787652L457.049 1.27044L466.986 3.83566L473.706 6.55148L480.993 10.1121L488.016 15.1056L501.295 25.3389L506.859 30.4178L512.987 36.3578L523.496 47.917L528.161 53.9586L532.345 60.6525L536.049 67.9988L537.703 72.7467L538.639 75.5109L540.531 82.8947L541.79 89.792L542.872 99.6194L542.841 109.612L542.81 119.606L542.364 129.893L541.188 150.045L540.175 159.487L538.398 169.16L538.201 170.235L537.26 173.395L535.488 177.143L529.871 186.11L518.747 201.471L509.455 218.651L505.3 227.516L501.777 236.868L497.464 250.519L495.733 257.977L495.708 262.046L495.879 265.041L496.335 268.457L497.139 271.938L499.795 279.092L506.984 293.004L525.756 314.598L530.138 320.218L533.821 325.709L541.537 336.755L559.11 357.018L567.788 366.759L575.635 377.089L584.115 387.905L587.864 393.038L589.848 395.994L591.831 398.951L595.034 405.094L597.822 411.532L598.692 414.654L599.496 418.135L600.017 421.193L600.123 424.546L593.871 458.578L587.701 474.48L582.579 490.574L576.146 507.909L572.122 516.057L567.532 523.361L561.894 530.473L558.726 533.964L555.341 536.675L547.173 541.841L543.504 544.129L538.854 545.867L533.986 546.825L528.834 547.36L518.38 547.291L497.82 547.217L477.741 546.491L457.793 545.048L437.279 542.761L417.879 540.308L376.284 534.888L312.257 523.866L305.709 524.145L298.964 525.498L286.323 529.471L273.55 534.161L262.392 539.888L231.447 559.015L225.243 565.282L219.737 571.677L208.395 586.258L195.592 600.941L192.394 603.687L190.254 605.515L187.925 607.309L184.19 609.956L180.172 612.181L175.71 613.953L171.474 615.397L166.606 616.354L162.219 616.659L158.596 616.734L152.529 616.361L143.197 615.016L129.777 611.44L116.206 606.725L89.4785 597.001L76.3222 591.991L63.3634 585.907L50.602 578.749L38.868 569.927L29.3605 560.774L20.6629 549.177L13.7768 537.543L10.64 531.041L7.8523 524.604L4.02271 512.05L1.56963 497.897L0.876864 491.845L0.381535 484.717L0.504152 470.297L1.49689 458.999L3.18792 447.83L5.8606 437.211L10.5624 427.335L16.7266 417.358L23.0425 408.519L27.7003 398.635L30.7003 388.447L34.2685 376.883L37.2904 366.328L41.9376 344.961L44.8278 335.123L45.8205 323.825L45.7402 316.404L45.5739 307.485L45.7987 300.12L44.4248 288.005L42.9851 276.249L41.7994 268.988L40.9619 261.791L40.4255 256.874L39.9174 247.884L40.2938 243.875L40.6044 240.225L41.7714 231.914L43.9171 224.153L47.6061 217.787L51.2293 211.78L56.2452 206.029L61.1294 200.996L66.6441 196.448L72.987 191.312L79.5463 186.956L86.802 182.729L93.9259 179.219L102.508 175.606L111.308 172.774L119.758 169.878L128.492 167.405L144.998 163.765L160.742 160.355L169.758 158.304L177.032 155.934L192.691 151.026L224.537 138.342L254.972 123.545L283.298 106.507L308.839 88.9577L332.338 68.8089L352.966 46.65L374.074 23.8379L380.036 18.8167L385.998 13.7954L392.839 9.86261L399.898 6.71094Z" fill="#F9FBEA"/>
</svg>
