<svg width="647" height="719" viewBox="0 0 647 719" fill="none" xmlns="http://www.w3.org/2000/svg">
<path d="M519.963 32.6496L531.781 23.4225L544.78 17.0345L558.37 12.7759L577.868 8.51727L612.139 2.12932L647 0V719H27.1799L21.2712 696.287L15.3626 674.284L11.2265 660.799L7.68128 647.313L5.31781 638.086L1.7726 621.051L1.18174 613.244L0.590868 606.146L0 589.821L1.18174 574.206L5.31781 560.721L9.45388 547.945L15.9534 535.169L22.453 523.812L30.1342 513.166L38.9973 501.1L48.4511 490.453L59.0868 479.807L69.7224 470.579L82.7215 460.643L96.3114 452.125L109.311 443.608L122.9 435.801L148.899 423.025L173.715 410.959L187.896 403.861L199.122 396.763L223.348 381.858L271.799 346.369L317.296 307.332L358.657 264.745L395.29 222.159L427.788 175.314L454.968 125.63L482.739 74.5262L491.011 62.8149L499.283 51.1037L509.328 41.1668L519.963 32.6496Z" fill="#F9FBEA"/>
</svg>
